#!OML:ASF H:\Terrain\Patient Classification 1\Animal2\Wednesday\Animal2.ASF
:FULLY-SPECIFIED
:DEGREES
2865
root 16.2543 15.6577 -12.0601 31.9024 6.45218 3.9602
lowerback 33.0448 -1.49972 1.19956
upperback 12.2747 -1.41362 -0.61912
thorax -4.02226 -0.575018 -0.896906
lowerneck 9.08836 8.22375 14.9558
upperneck -31.9908 7.86639 -27.8384
head -9.206 5.69183 -14.1887
rclavicle 1.05356e-014 1.0138e-014
rhumerus -6.28717 11.0893 -84.8551
rradius 103.157
rwrist -20.2165
rhand -27.0181 -1.3741
rfingers 7.12502
rthumb -0.437548 -31.3534
lclavicle 1.05356e-014 1.0138e-014
lhumerus -13.7859 -27.9028 87.8447
lradius 115.548
lwrist 39.5443
lhand -17.7686 46.9952
lfingers 7.12502
lthumb 8.49364 -643.196
rfemur -65.6388 -0.268588 -0.894457
rtibia 68.3902
rfoot -32.038 -11.0385
rtoes -20.6644
lfemur -61.6272 8.42602 -1.16294
ltibia 48.404
lfoot -16.9483 -5.03002
ltoes -41.2307
2866
root 16.295 15.6476 -12.0987 31.7878 6.61545 3.91548
lowerback 33.0341 -1.51533 1.17996
upperback 12.3708 -1.43461 -0.609505
thorax -3.90702 -0.58376 -0.868691
lowerneck 9.19659 8.29204 14.6231
upperneck -31.9024 7.95277 -27.6957
head -9.20926 5.76246 -14.0567
rclavicle 1.11319e-014 2.18663e-015
rhumerus -6.296 11.1768 -84.828
rradius 103.144
rwrist -20.9385
rhand -26.6475 -2.05454
rfingers 7.12502
rthumb -0.0796152 -32.0343
lclavicle 1.11319e-014 2.18663e-015
lhumerus -13.604 -28.0117 87.4658
lradius 115.307
lwrist 36.6836
lhand -16.257 44.2076
lfingers 7.12502
lthumb 9.95217 -646.048
rfemur -65.5442 -0.344083 -0.986669
rtibia 68.3068
rfoot -31.7672 -11.4954
rtoes -21.505
lfemur -61.7523 8.36371 -1.23524
ltibia 48.4469
lfoot -17.3123 -5.16783
ltoes -41.3037
2867
root 16.3368 15.638 -12.1362 31.6946 6.65683 3.65664
lowerback 32.9289 -1.44178 1.26173
upperback 12.4994 -1.32432 -0.615711
thorax -3.71252 -0.527916 -0.963513
lowerneck 9.08597 8.32001 14.5106
upperneck -31.6747 7.98634 -27.6757
head -9.10591 5.78727 -13.9755
rclavicle 2.18663e-015 4.96962e-016
rhumerus -6.17457 11.2206 -84.8453
rradius 102.985
rwrist -21.7778
rhand -26.9298 -2.32129
rfingers 7.12502
rthumb -0.352239 -32.3007
lclavicle 2.18663e-015 4.96962e-016
lhumerus -13.7047 -28.1768 87.1195
lradius 115.272
lwrist 34.3115
lhand -11.0928 46.9218
lfingers 7.12502
lthumb 14.9311 -643.636
rfemur -65.5267 -0.234005 -0.946511
rtibia 68.2129
rfoot -31.8424 -11.515
rtoes -21.5372
lfemur -61.8877 8.47214 -1.13848
ltibia 48.6124
lfoot -17.6896 -5.15376
ltoes -41.5396
2868
root 16.3816 15.6216 -12.1643 31.7313 6.34122 3.44562
lowerback 32.5225 -1.13062 1.15071
upperback 12.5972 -0.995321 -0.702808
thorax -3.41571 -0.371915 -1.11346
lowerneck 9.27833 8.22192 14.588
upperneck -31.5932 7.87032 -27.7499
head -9.13798 5.73859 -14.0366
rclavicle 1.98785e-015 1.68967e-015
rhumerus -6.21036 11.0792 -84.7827
rradius 102.836
rwrist -22.5178
rhand -27.4051 -2.36309
rfingers 7.12502
rthumb -0.811311 -32.3413
lclavicle 1.98785e-015 1.68967e-015
lhumerus -13.8372 -28.5637 86.9376
lradius 115.112
lwrist 31.7556
lhand -7.1766 49.5442
lfingers 7.12502
lthumb 18.701 -641.335
rfemur -65.7552 -0.103032 -1.07924
rtibia 68.1253
rfoot -31.8967 -11.4652
rtoes -22.06
lfemur -62.088 8.80823 -1.25702
ltibia 48.9257
lfoot -17.8594 -5.14976
ltoes -41.5921
2869
root 16.4167 15.6021 -12.2088 31.7327 6.55667 3.40001
lowerback 32.4247 -1.11999 1.23211
upperback 12.6398 -0.955509 -0.662024
thorax -3.32359 -0.35024 -1.12936
lowerneck 9.45514 8.22699 14.126
upperneck -31.6133 7.84855 -27.5239
head -9.24002 5.76254 -13.8773
rclavicle -7.95139e-015 1.26228e-014
rhumerus -6.26537 11.2313 -84.6318
rradius 102.934
rwrist -23.3407
rhand -27.9088 -2.42159
rfingers 7.12502
rthumb -1.29778 -32.3974
lclavicle -7.95139e-015 1.26228e-014
lhumerus -13.9749 -28.655 86.9521
lradius 114.894
lwrist 28.9668
lhand -6.46387 44.5415
lfingers 7.12502
lthumb 19.3864 -646.405
rfemur -65.8131 -0.445491 -1.05999
rtibia 68.0811
rfoot -31.7117 -11.4217
rtoes -22.3622
lfemur -62.5756 8.75107 -1.33146
ltibia 49.3066
lfoot -17.7782 -5.26542
ltoes -41.689
2870
root 16.451 15.5952 -12.2448 31.5639 6.54894 3.06349
lowerback 32.409 -1.02679 1.34309
upperback 12.7443 -0.814271 -0.675917
thorax -3.19358 -0.278475 -1.25693
lowerneck 9.24573 8.26558 13.887
upperneck -31.3525 7.89988 -27.3555
head -9.1208 5.78677 -13.6932
rclavicle -1.11319e-014 -3.97569e-015
rhumerus -6.36772 11.4744 -84.7796
rradius 103.131
rwrist -23.8411
rhand -28.2521 -2.48886
rfingers 7.12502
rthumb -1.62942 -32.4624
lclavicle -1.11319e-014 -3.97569e-015
lhumerus -14.1288 -28.5258 86.7729
lradius 114.863
lwrist 26.5541
lhand -3.69312 43.2443
lfingers 7.12502
lthumb 22.0486 -647.993
rfemur -65.8201 -0.33052 -0.88512
rtibia 67.9667
rfoot -31.5971 -11.1355
rtoes -21.3908
lfemur -62.7418 8.97693 -1.19479
ltibia 49.7076
lfoot -17.8068 -5.39521
ltoes -41.8634
2871
root 16.4877 15.5925 -12.273 31.5458 6.17269 2.83022
lowerback 32.2572 -0.67903 1.16479
upperback 12.7073 -0.458711 -0.8042
thorax -3.15903 -0.112394 -1.41613
lowerneck 9.15138 8.15149 14.3702
upperneck -30.8622 7.81481 -27.6067
head -8.89759 5.71202 -13.8056
rclavicle 1.43125e-014 1.17283e-014
rhumerus -6.76051 11.4629 -84.953
rradius 103.321
rwrist -24.0801
rhand -28.6878 -2.65059
rfingers 7.12502
rthumb -2.05015 -32.6205
lclavicle 1.43125e-014 1.17283e-014
lhumerus -14.5202 -28.4986 86.4753
lradius 114.898
lwrist 24.3749
lhand 0.186713 43.5671
lfingers 7.12502
lthumb 25.7692 -648.158
rfemur -66.0278 -0.040174 -1.0368
rtibia 67.7841
rfoot -31.4181 -10.9381
rtoes -21.0213
lfemur -62.8986 9.30679 -1.25583
ltibia 50.0857
lfoot -17.9499 -5.32826
ltoes -42.0952
